# AST/ASF file generated using VICON BodyLanguage
# -----------------------------------------------
:version 1.10
:name VICON
:units
  mass 1.0
  length 0.45
  angle deg
:documentation
   .ast/.asf automatically generated from VICON data using
   VICON BodyBuilder and BodyLanguage model FoxedUp or BRILLIANT.MOD
:root
   order TX TY TZ RX RY RZ
   axis XYZ
   position 0 0 0  
   orientation 0 0 0 
:bonedata
  begin
     id 1 
     name lhipjoint
     direction 0.61886 -0.69539 0.365302 
     length 2.20474 
     axis 0 0 0  XYZ
  end
  begin
     id 2 
     name lfemur
     direction 0.34202 -0.939693 0  
     length 6.65149  
     axis 0 0 20  XYZ
    dof rx ry rz
    limits (-160.0 20.0)
           (-70.0 70.0)
           (-60.0 70.0)
  end
  begin
     id 3 
     name ltibia
     direction 0.34202 -0.939693 0   
     length 6.35814   
     axis 0 0 20   XYZ
    dof rx
    limits (-10.0 170.0)
  end
  begin
     id 4 
     name lfoot
     direction 0.101224 -0.278109 0.955201   
     length 2.18766   
     axis -90 7.62852e-016 20   XYZ
    dof rx rz
    limits (-45.0 90.0)
           (-70.0 20.0)
  end
  begin
     id 5 
     name ltoes
     direction 1.53524e-011 -4.21877e-011 1   
     length 1.09206   
     axis -90 7.62852e-016 20   XYZ
    dof rx
    limits (-90.0 20.0)
  end
  begin
     id 6 
     name rhipjoint
     direction -0.600207 -0.708087 0.371972   
     length 2.1652  
     axis 0 0 0  XYZ 
  end
  begin
     id 7 
     name rfemur
     direction -0.34202 -0.939693 0   
     length 6.54691   
     axis 0 0 -20   XYZ
    dof rx ry rz
    limits (-160.0 20.0)
           (-70.0 70.0)
           (-70.0 60.0)
  end
  begin
     id 8 
     name rtibia
     direction -0.34202 -0.939693 0   
     length 6.37474   
     axis 0 0 -20   XYZ
    dof rx
    limits (-10.0 170.0)
 end
 begin
     id 9 
     name rfoot
     direction -0.111266 -0.3057 0.945604   
     length 2.00903  
     axis -90 -7.62852e-016 -20   XYZ
    dof rx rz
    limits (-45.0 90.0)
           (-20.0 70.0)
  end
  begin
     id 10 
     name rtoes
     direction -1.5362e-011 -4.21913e-011 1   
     length 1.00221   
     axis -90 -7.62852e-016 -20   XYZ
    dof rx
    limits (-90.0 20.0)
  end
  begin
     id 11 
     name lowerback
     direction -0.0224561 0.999731 -0.00577314   
     length 2.10409   
     axis 0 0 0   XYZ
    dof rx ry rz
    limits (-20.0 45.0)
           (-30.0 30.0)
           (-30.0 30.0)
  end
  begin
     id 12 
     name upperback
     direction 0.0213126 0.999185 -0.0342817   
     length 2.09783   
     axis 0 0 0   XYZ
    dof rx ry rz
    limits (-20.0 45.0)
           (-30.0 30.0)
           (-30.0 30.0)
  end
  begin
     id 13 
     name thorax
     direction 0.0312356 0.999036 -0.0308451   
     length 2.09788   
     axis 0 0 0   XYZ
    dof rx ry rz
    limits (-20.0 45.0)
           (-30.0 30.0)
           (-30.0 30.0)
  end
  begin
     id 14 
     name lowerneck
     direction -0.0114419 0.996481 0.0830329   
     length 1.38575   
     axis 0 0 0   XYZ
    dof rx ry rz
    limits (-20.0 45.0)
           (-30.0 30.0)
           (-30.0 30.0)
  end
  begin
     id 15 
     name upperneck
     direction -0.0075675 0.996187 -0.0869092   
     length 1.39401   
     axis 0 0 0   XYZ
    dof rx ry rz
    limits (-20.0 45.0)
           (-30.0 30.0)
           (-30.0 30.0)
  end
  begin
     id 16
     name head
     direction -0.00222073 0.999264 -0.0382974  
     length 1.3964  
     axis 0 0 0   XYZ
    dof rx ry rz
    limits (-20.0 45.0)
           (-30.0 30.0)
           (-30.0 30.0)
  end
  begin
     id 17 
     name lclavicle
     direction 0.965962 0.222138 0.132556  
     length 2.81514  
     axis 0 0 0   XYZ
    dof ry rz
    limits (-20.0 10.0)
           (0.0 20.0)
  end
  begin
     id 18 
     name lhumerus
     direction 1 -4.48972e-011 7.03471e-018   
     length 4.47366   
     axis 180 -30 -90   XYZ
    dof rx ry rz
    limits (-60.0 90.0)
           (-90.0 90.0)
           (-90.0 90.0)
  end
  begin
     id 19
     name lradius
     direction 1 -4.48951e-011 -6.22192e-028   
     length 3.19948   
     axis 180 -30 -90   XYZ
    dof rx
    limits (-10.0 170.0)
  end
  begin
     id 20
     name lwrist
     direction 1 -4.48967e-011 -1.24264e-027   
     length 1.59974   
     axis 1.40095e-015 90 90   XYZ
    dof ry
    limits (-180.0 0.0)
 end
  begin
     id 21 
     name lhand
     direction 1 -4.4897e-011 -2.48528e-027   
     length 0.492667   
     axis 1.58582e-015 90 90   XYZ
    dof rx rz
    limits (-90.0 90.0)
           (-45.0 45.0)
  end
  begin
     id 22 
     name lfingers
     direction 1 -4.48996e-011 -4.97056e-027   
     length 0.397201   
     axis 3.17164e-015 90 90   XYZ
    dof rx
    limits (0.0 90.0)
  end
  begin
     id 23
     name lthumb
     direction 0.707107 -6.34981e-011 0.707107   
     length 0.570303   
     axis -90 45 2.85299e-015   XYZ
    dof rx rz
    limits (-45.0 45.0)
           (-45.0 45.0)
  end
  begin
     id 24 
     name rclavicle
     direction -0.961164 0.229034 0.153972   
     length 3.09348  
     axis 0 0 0   XYZ 
    dof ry rz
    limits (-10.0 20.0)
           (-20.0 0.0)
  end
  begin
     id 25 
     name rhumerus
     direction -1 -4.48971e-011 -9.06263e-028  
     length 4.3269   
     axis 180 30 90   XYZ
    dof rx ry rz
    limits (-90.0 60.0)
           (-90.0 90.0)
           (-90.0 90.0)
  end
  begin
     id 26 
     name rradius
     direction -1 -4.48953e-011 1.44659e-027   
     length 3.1896   
     axis 180 30 90   XYZ
    dof rx
    limits (-10.0 170.0)
  end
  begin
     id 27 
     name rwrist
     direction -1 -4.48988e-011 -1.24264e-027   
     length 1.5948   
     axis 1.40095e-015 -90 -90   XYZ
    dof ry
    limits (-180.0 0.0)
  end
  begin
     id 28
     name rhand
     direction -1 -4.49033e-011 -2.48528e-027   
     length 0.464496   
     axis 1.58582e-015 -90 -90   XYZ
    dof rx rz
    limits (-90.0 90.0)
           (-45.0 45.0)
  end
  begin
     id 29
     name rfingers
     direction -1 -4.48905e-011 -4.97056e-027   
     length 0.374489   
     axis 3.17164e-015 -90 -90   XYZ
    dof rx
    limits (0.0 90.0)
  end
  begin
     id 30
     name rthumb
     direction -0.707107 -6.34909e-011 0.707107   
     length 0.537693   
     axis -90 -45 -2.85299e-015   XYZ
    dof rx rz
    limits (-45.0 45.0)
           (-45.0 45.0)
  end
:hierarchy
  begin
    root lhipjoint rhipjoint lowerback
    lhipjoint lfemur
    lfemur ltibia
    ltibia lfoot
    lfoot ltoes
    rhipjoint rfemur
    rfemur rtibia
    rtibia rfoot
    rfoot rtoes
    lowerback upperback
    upperback thorax
    thorax lowerneck lclavicle rclavicle
    lowerneck upperneck
    upperneck head
    lclavicle lhumerus
    lhumerus lradius
    lradius lwrist
    lwrist lhand lthumb
    lhand lfingers
    rclavicle rhumerus
    rhumerus rradius
    rradius rwrist
    rwrist rhand rthumb
    rhand rfingers
  end

#!OML:ASF G:\acrobat\cartwheel_test 2\Patient 1\Session 2\acrobat4.ASF
:FULLY-SPECIFIED
:DEGREES
209
root 5.65918 15.06 18.1773 -164.676 -14.7676 -180.809
lowerback 15.615 0.10956 -1.04445
upperback 3.62473 -0.458897 -0.539532
thorax -4.89773 -0.386221 0.126598
lowerneck -9.697 -0.294927 -1.07979
upperneck 3.14586 -0.254928 -0.754633
head 2.6935 -0.185674 -0.0694312
rclavicle 3.15074e-014 -4.87022e-015
rhumerus -32.2403 -7.25883 -56.4043
rradius 50.0733
rwrist -9.05728
rhand -10.6776 -25.496
rfingers 7.12502
rthumb 15.331 -414.908
lclavicle 3.15074e-014 -4.87022e-015
lhumerus -41.3997 -38.3616 97.5747
lradius 120.29
lwrist 19.7505
lhand -38.9001 -7.86019
lfingers 7.12502
lthumb -11.9073 21.7812
rfemur -53.723 -20.2433 17.2926
rtibia 58.1679
rfoot -6.8014 -4.67496
rtoes -18.7974
lfemur -4.70414 4.46327 -17.2049
ltibia 29.0705
lfoot -209.092 200.661
ltoes -21.1878
210
root 5.54601 15.0463 18.4244 -165.404 -14.1053 -180.977
lowerback 14.9132 0.202099 -1.94421
upperback 3.32272 -0.429859 -0.632451
thorax -4.83232 -0.343955 0.527831
lowerneck -9.0426 -0.391886 -0.972309
upperneck 3.14006 -0.399683 -0.737748
head 2.56869 -0.250769 -0.0885318
rclavicle 5.26779e-015 -1.94809e-014
rhumerus -33.298 -7.85051 -57.3012
rradius 52.5842
rwrist -9.0057
rhand -11.2472 -26.4665
rfingers 7.12502
rthumb 14.7823 -415.919
lclavicle 5.26779e-015 -1.94809e-014
lhumerus -42.1658 -37.5449 96.602
lradius 121.681
lwrist 18.8882
lhand -38.735 -8.34147
lfingers 7.12502
lthumb -11.7481 21.3091
rfemur -52.3781 -20.9993 15.9118
rtibia 61.1657
rfoot -7.98693 -3.11322
rtoes -18.6698
lfemur -5.12855 4.92789 -18.2119
ltibia 30.2684
lfoot -210.035 200.658
ltoes -20.7804
211
root 5.44952 15.0316 18.6605 -165.905 -13.4365 -181.243
lowerback 14.0818 0.36561 -3.09125
upperback 3.17688 -0.335452 -0.650938
thorax -4.53012 -0.276736 1.13411
lowerneck -9.13895 -0.528919 -1.08406
upperneck 3.14084 -0.57303 -0.683548
head 2.58775 -0.337587 -0.0606962
rclavicle 1.49089e-015 -1.19271e-014
rhumerus -33.7958 -8.54317 -58.3566
rradius 54.7486
rwrist -8.61205
rhand -11.9267 -27.1765
rfingers 7.12502
rthumb 14.1276 -416.676
lclavicle 1.49089e-015 -1.19271e-014
lhumerus -42.6971 -36.6092 95.0964
lradius 122.883
lwrist 18.0133
lhand -39.165 -8.79346
lfingers 7.12502
lthumb -12.1628 20.833
rfemur -50.9137 -21.4582 14.4136
rtibia 64.3256
rfoot -8.44667 -2.34133
rtoes -18.4024
lfemur -5.71717 5.68749 -19.1608
ltibia 31.3147
lfoot -210.653 200.262
ltoes -20.3452
212
root 5.36905 15.0152 18.8866 -166.286 -12.8103 -181.44
lowerback 13.2546 0.586151 -4.17225
upperback 2.98611 -0.136134 -0.683416
thorax -4.28458 -0.157782 1.67173
lowerneck -9.30409 -0.741563 -1.22974
upperneck 3.26219 -0.843563 -0.547196
head 2.66182 -0.470207 -0.0061856
rclavicle -8.44835e-015 -1.98785e-016
rhumerus -34.4603 -9.12924 -59.586
rradius 56.8004
rwrist -8.2571
rhand -12.4172 -27.5858
rfingers 7.12502
rthumb 13.655 -417.118
lclavicle -8.44835e-015 -1.98785e-016
lhumerus -43.2872 -35.2421 93.7503
lradius 123.574
lwrist 17.7889
lhand -39.5629 -9.11906
lfingers 7.12502
lthumb -12.5464 20.4842
rfemur -49.1652 -21.6268 13.0206
rtibia 67.4198
rfoot -8.2725 -2.1536
rtoes -18.639
lfemur -6.44292 6.70273 -19.9279
ltibia 32.2776
lfoot -210.795 199.907
ltoes -20.8173
213
root 5.30046 15.0102 19.1023 -166.595 -12.3442 -181.484
lowerback 12.443 0.798126 -5.03071
upperback 2.76493 0.0985633 -0.717995
thorax -4.08629 -0.0220191 2.07906
lowerneck -9.47206 -1.02405 -1.33412
upperneck 3.35852 -1.21708 -0.316657
head 2.73004 -0.649368 0.0657718
rclavicle 2.70347e-014 -1.11319e-014
rhumerus -35.3375 -9.64101 -61.1124
rradius 58.809
rwrist -7.8075
rhand -13.0718 -27.2569
rfingers 7.12502
rthumb 13.024 -416.83
lclavicle 2.70347e-014 -1.11319e-014
lhumerus -43.7476 -33.3319 92.5584
lradius 123.656
lwrist 17.9616
lhand -39.4118 -9.11009
lfingers 7.12502
lthumb -12.4007 20.5021
rfemur -47.0556 -21.7243 11.9533
rtibia 70.1995
rfoot -8.13284 -1.70627
rtoes -18.9077
lfemur -7.30271 7.81758 -20.4667
ltibia 33.2035
lfoot -210.702 199.578
ltoes -21.5706
214
root 5.23671 15.0185 19.3091 -166.765 -12.1221 -181.311
lowerback 11.4796 0.934497 -5.56124
upperback 2.62708 0.301977 -0.678893
thorax -3.71734 0.0886815 2.38791
lowerneck -9.67752 -1.33627 -1.54171
upperneck 3.1924 -1.62771 -0.0224515
head 2.71974 -0.847087 0.174316
rclavicle 5.86415e-015 2.66371e-014
rhumerus -36.0659 -9.9412 -62.9036
rradius 60.6693
rwrist -7.17021
rhand -13.3069 -26.9374
rfingers 7.12502
rthumb 12.7974 -416.525
lclavicle 5.86415e-015 2.66371e-014
lhumerus -44.0887 -31.3778 91.2456
lradius 123.285
lwrist 18.1833
lhand -39.489 -8.43729
lfingers 7.12502
lthumb -12.4752 21.1704
rfemur -44.6471 -21.9094 11.3365
rtibia 72.4452
rfoot -8.04552 -1.1112
rtoes -18.4993
lfemur -8.3726 8.58755 -20.8172
ltibia 34.1075
lfoot -210.739 199.39
ltoes -21.8139
215
root 5.17745 15.0385 19.5099 -166.987 -12.1737 -180.935
lowerback 10.6454 0.995084 -5.7685
upperback 2.62237 0.441695 -0.532627
thorax -3.27537 0.15627 2.63999
lowerneck -10.1077 -1.67969 -2.0846
upperneck 2.98536 -2.04533 0.417327
head 2.74731 -1.0493 0.385995
rclavicle 1.15295e-014 -7.55382e-015
rhumerus -36.51 -9.71321 -64.8567
rradius 62.2983
rwrist -6.71693
rhand -13.1992 -27.0424
rfingers 7.12502
rthumb 12.9011 -416.624
lclavicle 1.15295e-014 -7.55382e-015
lhumerus -44.3868 -29.4318 89.9773
lradius 122.693
lwrist 18.3412
lhand -39.772 -7.20692
lfingers 7.12502
lthumb -12.7479 22.3839
rfemur -41.7778 -22.2091 11.0958
rtibia 74.0492
rfoot -7.58429 -0.503061
rtoes -17.1017
lfemur -9.43749 8.69818 -20.9814
ltibia 34.978
lfoot -211.071 199.424
ltoes -20.8894
216
root 5.12676 15.0681 19.7027 -167.4 -12.4274 -180.407
lowerback 10.1817 1.13324 -5.65973
upperback 2.45386 0.690626 -0.460697
thorax -3.21609 0.291477 2.6225
lowerneck -9.76212 -2.18701 -2.46662
upperneck 2.75033 -2.71043 0.920975
head 2.62801 -1.36622 0.582598
rclavicle 5.96354e-015 -2.0276e-014
rhumerus -37.6755 -9.17079 -66.9015
rradius 63.9895
rwrist -6.4428
rhand -13.5293 -26.9978
rfingers 7.12502
rthumb 12.5829 -416.599
lclavicle 5.96354e-015 -2.0276e-014
lhumerus -45.1448 -27.8828 88.9964
lradius 122.008
lwrist 18.3749
lhand -39.8953 -6.17858
lfingers 7.12502
lthumb -12.8669 23.4048
rfemur -38.4039 -22.6167 11.179
rtibia 75.0057
rfoot -6.56177 0.283815
rtoes -15.1037
lfemur -10.3347 8.46904 -20.9229
ltibia 35.8087
lfoot -211.522 199.595
ltoes -19.2419
217
root 5.08454 15.0938 19.8893 -167.886 -12.7822 -179.791
lowerback 9.81305 1.22494 -5.44277
upperback 2.52536 0.871822 -0.341503
thorax -2.95205 0.374598 2.60518
lowerneck -10.3832 -2.72992 -3.0041
upperneck 2.93124 -3.38369 1.45124
head 2.84428 -1.68935 0.80423
rclavicle -9.93923e-016 -1.39149e-014
rhumerus -38.2278 -8.15282 -69.1571
rradius 65.5383
rwrist -6.04498
rhand -14.0341 -26.7466
rfingers 7.12502
rthumb 12.0962 -416.377
lclavicle -9.93923e-016 -1.39149e-014
lhumerus -45.4075 -26.253 87.7955
lradius 121.307
lwrist 18.2614
lhand -40.2289 -5.70036
lfingers 7.12502
lthumb -13.1884 23.8625
rfemur -34.7722 -23.1279 11.5256
rtibia 75.3807
rfoot -4.86559 1.04649
rtoes -13.2415
lfemur -11.1603 8.34032 -20.7047
ltibia 36.5941
lfoot -211.646 199.921
ltoes -18.2707
218
root 5.04728 15.1152 20.0743 -168.332 -13.1146 -179.214
lowerback 9.46578 1.41478 -5.12308
upperback 2.37329 1.18703 -0.427054
thorax -2.93695 0.539144 2.30045
lowerneck -9.70534 -3.33817 -3.32249
upperneck 2.70422 -4.20676 2.12881
head 2.68882 -2.07839 1.04238
rclavicle -1.5704e-014 5.1684e-015
rhumerus -39.1323 -6.90299 -71.459
rradius 66.8129
rwrist -5.37179
rhand -14.0789 -26.4437
rfingers 7.12502
rthumb 12.053 -416.077
lclavicle -1.5704e-014 5.1684e-015
lhumerus -46.3192 -25.2038 86.7465
lradius 120.91
lwrist 18.2473
lhand -40.6385 -5.26981
lfingers 7.12502
lthumb -13.5832 24.2671
rfemur -31.1243 -23.7014 11.9531
rtibia 75.2632
rfoot -3.58853 1.75919
rtoes -15.0028
lfemur -11.9666 8.19416 -20.4891
ltibia 37.3371
lfoot -211.655 200.166
ltoes -17.5519
219
root 5.01415 15.1384 20.253 -168.653 -13.3394 -178.666
lowerback 8.9734 1.6187 -4.89548
upperback 2.43746 1.51385 -0.467122
thorax -2.61636 0.693884 2.10165
lowerneck -9.8319 -3.95657 -3.87521
upperneck 2.58258 -5.00523 2.90452
head 2.74192 -2.45653 1.34588
rclavicle -2.24627e-014 -1.78906e-014
rhumerus -39.1792 -5.3024 -73.7494
rradius 67.7244
rwrist -4.487
rhand -13.5138 -25.9342
rfingers 7.12502
rthumb 12.5979 -415.534
lclavicle -2.24627e-014 -1.78906e-014
lhumerus -46.7206 -24.073 85.639
lradius 120.686
lwrist 18.3802
lhand -40.6353 -4.88786
lfingers 7.12502
lthumb -13.5802 24.6492
rfemur -27.6874 -24.2698 12.5064
rtibia 74.7601
rfoot -1.44644 3.17755
rtoes -11.2867
lfemur -12.8154 7.96477 -20.2675
ltibia 38.0163
lfoot -211.788 200.132
ltoes -16.791
220
root 4.98736 15.1586 20.4229 -168.792 -13.4082 -178.092
lowerback 8.39284 1.81497 -4.70689
upperback 2.35711 1.83565 -0.526836
thorax -2.39373 0.856194 1.90999
lowerneck -9.1527 -4.47917 -3.8335
upperneck 1.8893 -5.73941 3.11613
head 2.41444 -2.82385 1.38045
rclavicle -5.56597e-015 -1.59028e-015
rhumerus -39.3665 -3.3594 -76.1703
rradius 68.9284
rwrist -3.32505
rhand -12.6694 -25.4275
rfingers 7.12502
rthumb 13.4119 -414.976
lclavicle -5.56597e-015 -1.59028e-015
lhumerus -47.3949 -22.9374 84.5668
lradius 120.737
lwrist 18.7154
lhand -40.4167 -5.07642
lfingers 7.12502
lthumb -13.3694 24.4746
rfemur -24.6381 -24.7285 13.3124
rtibia 73.9807
rfoot 1.17767 4.20406
rtoes -4.10946
lfemur -13.8155 8.11823 -19.9808
ltibia 38.6378
lfoot -211.69 199.977
ltoes -17.1507
